<svg xmlns:rdf="http://www.w3.org/1999/02/22-rdf-syntax-ns#" xmlns="http://www.w3.org/2000/svg" xmlns:cc="http://creativecommons.org/ns#" xmlns:dc="http://purl.org/dc/elements/1.1/" version="1.1" viewBox="0 0 400 400" width="400" height="400">
	<g id="layer1" transform="translate(10 -640)">
		<path id="path4138" fill="#DF3A4A" d="m188.61 653.17a188.21 188.21 0 0 0 -78.733 17.506c-5.9447 10.965-9.3056 23.729-9.3056 37.914 0 35.753 16.364 59.374 73.966 93.849l38.619 22.984c74.621 44.052 108.66 70.229 108.66 127.05 0 8.1667-0.5732 16.001-1.6736 23.496a188.21 188.21 0 0 0 56.67 -134.58 188.21 188.21 0 0 0 -188.21 -188.22zm-119.84 43.28a188.21 188.21 0 0 0 -68.377 144.94 188.21 188.21 0 0 0 78.448 152.68l0.12566-0.0977c0.10315 0.14555 0.21157 0.28758 0.31519 0.4328a188.21 188.21 0 0 0 109.33 35.194 188.21 188.21 0 0 0 87.127 -21.482c8.4737-13.804 13.349-30.077 13.349-47.982 0-43.414-5.2362-60.013-92.294-110.45l-43.87-25.52c-45.16-26.18-85.091-56.82-85.091-112.37 0-5.2815 0.31738-10.393 0.92958-15.332z"/>
	</g>
</svg>
